<svg xmlns="http://www.w3.org/2000/svg" xmlns:xlink="http://www.w3.org/1999/xlink" width="350" zoomAndPan="magnify" viewBox="0 0 262.5 112.499997" height="150" preserveAspectRatio="xMidYMid meet" version="1.0"><defs><g/></defs><path stroke-linecap="butt" transform="matrix(0.0109344, 0.746601, -0.746601, 0.0109344, 102.046621, 25.114176)" fill="none" stroke-linejoin="miter" d="M -0.00225596 1.501222 L 80.189303 1.498465 " stroke="#70b22d" stroke-width="3" stroke-opacity="1" stroke-miterlimit="4"/><g fill="#70b22d" fill-opacity="1"><g transform="translate(110.975078, 52.998368)"><g><path d="M 14.59375 -28.390625 C 12.894531 -28.390625 11.503906 -28.023438 10.421875 -27.296875 C 9.335938 -26.578125 8.796875 -25.613281 8.796875 -24.40625 C 8.796875 -23.507812 9.050781 -22.773438 9.5625 -22.203125 C 10.070312 -21.628906 11.128906 -21.160156 12.734375 -20.796875 L 20.5625 -18.890625 C 23.769531 -18.117188 26 -17.007812 27.25 -15.5625 C 28.5 -14.113281 29.125 -12.257812 29.125 -10 C 29.125 -7.625 28.546875 -5.617188 27.390625 -3.984375 C 26.234375 -2.347656 24.664062 -1.128906 22.6875 -0.328125 C 20.71875 0.472656 18.484375 0.875 15.984375 0.875 C 11.597656 0.875 8.164062 -0.046875 5.6875 -1.890625 C 3.21875 -3.742188 1.925781 -6.523438 1.8125 -10.234375 L 8.46875 -10.234375 C 8.53125 -8.535156 9.164062 -7.210938 10.375 -6.265625 C 11.582031 -5.328125 13.296875 -4.859375 15.515625 -4.859375 C 17.765625 -4.859375 19.484375 -5.210938 20.671875 -5.921875 C 21.867188 -6.640625 22.46875 -7.722656 22.46875 -9.171875 C 22.46875 -10.097656 22.148438 -10.820312 21.515625 -11.34375 C 20.878906 -11.875 19.816406 -12.351562 18.328125 -12.78125 C 16.847656 -13.21875 14.382812 -13.820312 10.9375 -14.59375 C 7.90625 -15.269531 5.707031 -16.347656 4.34375 -17.828125 C 2.988281 -19.304688 2.3125 -21.328125 2.3125 -23.890625 C 2.3125 -25.867188 2.78125 -27.628906 3.71875 -29.171875 C 4.664062 -30.722656 6.097656 -31.9375 8.015625 -32.8125 C 9.929688 -33.6875 12.289062 -34.125 15.09375 -34.125 C 17.65625 -34.125 19.898438 -33.6875 21.828125 -32.8125 C 23.765625 -31.9375 25.269531 -30.6875 26.34375 -29.0625 C 27.425781 -27.4375 28 -25.546875 28.0625 -23.390625 L 21.390625 -23.390625 C 21.085938 -26.722656 18.820312 -28.390625 14.59375 -28.390625 Z M 14.59375 -28.390625 "/></g></g></g><g fill="#70b22d" fill-opacity="1"><g transform="translate(141.862201, 52.998368)"><g><path d="M 10.328125 -27.375 L 10.328125 -20.375 L 26.53125 -20.375 L 26.53125 -14.5 L 10.328125 -14.5 L 10.328125 -5.875 L 28.765625 -5.875 L 28.765625 0 L 3.515625 0 L 3.515625 -33.25 L 27.96875 -33.25 L 27.96875 -27.375 Z M 10.328125 -27.375 "/></g></g></g><g fill="#70b22d" fill-opacity="1"><g transform="translate(172.749325, 52.998368)"><g><path d="M 10.328125 -27.375 L 10.328125 -20.375 L 26.53125 -20.375 L 26.53125 -14.5 L 10.328125 -14.5 L 10.328125 -5.875 L 28.765625 -5.875 L 28.765625 0 L 3.515625 0 L 3.515625 -33.25 L 27.96875 -33.25 L 27.96875 -27.375 Z M 10.328125 -27.375 "/></g></g></g><g fill="#70b22d" fill-opacity="1"><g transform="translate(203.636448, 52.998368)"><g><path d="M 29.03125 -22.640625 C 29.03125 -20.703125 28.613281 -18.921875 27.78125 -17.296875 C 26.945312 -15.671875 25.75 -14.378906 24.1875 -13.421875 C 22.632812 -12.472656 20.804688 -12 18.703125 -12 L 10.46875 -12 L 10.46875 0 L 3.515625 0 L 3.515625 -33.25 L 18.703125 -33.25 C 21.921875 -33.25 24.445312 -32.289062 26.28125 -30.375 C 28.113281 -28.46875 29.03125 -25.890625 29.03125 -22.640625 Z M 22.09375 -22.921875 C 22.09375 -24.554688 21.617188 -25.726562 20.671875 -26.4375 C 19.734375 -27.15625 18.242188 -27.515625 16.203125 -27.515625 L 10.46875 -27.515625 L 10.46875 -17.734375 L 17.09375 -17.734375 C 20.425781 -17.734375 22.09375 -19.460938 22.09375 -22.921875 Z M 22.09375 -22.921875 "/></g></g></g><path fill="#70b22d" d="M 50.308594 7.28125 C 45.085938 7.289062 40.847656 11.527344 40.855469 16.761719 C 40.867188 21.984375 45.105469 26.222656 50.328125 26.222656 C 55.550781 26.222656 59.789062 21.984375 59.789062 16.75 L 59.789062 16.734375 C 59.78125 11.5 55.542969 7.269531 50.308594 7.28125 Z M 19.074219 29.152344 C 17.40625 29.160156 15.714844 29.25 14.128906 29.652344 C 13.078125 29.921875 12.066406 30.351562 11.414062 31.035156 C 10.589844 31.882812 10.480469 33.03125 10.882812 34.015625 C 11.242188 34.886719 12.210938 35.53125 13.285156 35.90625 C 15.605469 36.707031 18.179688 36.867188 20.617188 37.367188 C 21.0625 37.476562 21.566406 37.601562 21.84375 37.90625 C 22.128906 38.273438 21.960938 38.773438 21.484375 39 C 20.695312 39.402344 19.683594 39.402344 18.761719 39.394531 C 17.917969 39.359375 16.996094 39.285156 16.324219 38.863281 C 15.832031 38.558594 15.742188 38.050781 15.859375 37.601562 L 10.429688 37.601562 C 10.410156 38.425781 10.570312 39.292969 11.179688 40.003906 C 11.683594 40.613281 12.507812 41.03125 13.382812 41.292969 C 14.792969 41.707031 16.316406 41.832031 17.8125 41.867188 C 19.84375 41.902344 21.914062 41.839844 23.867188 41.382812 C 25.03125 41.097656 26.179688 40.640625 26.921875 39.894531 C 28.25 38.570312 27.9375 36.464844 26.179688 35.433594 C 25.300781 34.921875 24.253906 34.609375 23.1875 34.402344 C 21.617188 34.078125 20.023438 33.839844 18.445312 33.578125 C 17.890625 33.46875 17.300781 33.371094 16.835938 33.113281 C 16.339844 32.851562 16.304688 32.234375 16.808594 31.957031 C 17.453125 31.589844 18.3125 31.597656 19.082031 31.597656 C 19.898438 31.617188 20.785156 31.660156 21.457031 32.046875 C 21.835938 32.253906 21.988281 32.609375 21.988281 32.949219 L 27.148438 32.941406 C 27.128906 32.289062 27.003906 31.605469 26.527344 31.042969 C 25.972656 30.34375 24.996094 29.90625 23.992188 29.652344 C 22.40625 29.242188 20.730469 29.160156 19.074219 29.152344 Z M 30.273438 29.539062 L 30.273438 41.875 L 45.335938 41.875 L 45.335938 39.1875 L 35.804688 39.1875 L 35.804688 36.792969 L 44.304688 36.792969 L 44.304688 34.167969 L 35.804688 34.167969 L 35.804688 32.207031 L 44.996094 32.207031 L 44.988281 29.546875 Z M 55.085938 29.546875 C 55.085938 29.546875 50.433594 29.546875 48.105469 29.546875 L 48.105469 41.882812 L 53.390625 41.882812 L 53.390625 33.578125 L 60.632812 41.875 L 67.890625 41.882812 L 67.890625 29.546875 L 62.59375 29.546875 L 62.601562 37.789062 Z M 77.316406 29.5625 C 77.316406 29.5625 71.617188 37.796875 68.75 41.902344 L 74.296875 41.902344 L 75.632812 39.679688 L 84.207031 39.679688 L 85.453125 41.910156 L 91.617188 41.910156 L 83.445312 29.5625 Z M 80.09375 32.511719 L 82.726562 36.984375 L 77.289062 36.992188 Z M 6.082031 45.371094 L 6.125 52.089844 L 31.222656 52 C 32.503906 52.277344 33.25 53.113281 32.988281 55.003906 L 17.550781 82.027344 L 22.578125 86.730469 L 46.492188 45.371094 Z M 53.984375 45.421875 L 77.496094 86.605469 L 82.691406 81.9375 L 67.074219 54.984375 C 66.8125 53.085938 67.558594 52.242188 68.839844 51.964844 L 93.945312 52.054688 L 93.9375 45.449219 Z M 50.015625 52.242188 L 27.960938 90.089844 L 33.824219 92.949219 L 48.535156 68.074219 C 49.046875 67.664062 49.558594 67.4375 50.066406 67.421875 C 50.605469 67.402344 51.160156 67.601562 51.707031 68.03125 L 66.382812 92.976562 L 72.421875 89.820312 Z M 50.015625 52.242188 " fill-opacity="1" fill-rule="nonzero"/><g fill="#ffffff" fill-opacity="1"><g transform="translate(110.975078, 71.071827)"><g><path d="M 3.8125 -7.421875 C 3.363281 -7.421875 3 -7.328125 2.71875 -7.140625 C 2.4375 -6.953125 2.296875 -6.695312 2.296875 -6.375 C 2.296875 -6.144531 2.363281 -5.953125 2.5 -5.796875 C 2.632812 -5.648438 2.910156 -5.53125 3.328125 -5.4375 L 5.375 -4.9375 C 6.21875 -4.738281 6.800781 -4.445312 7.125 -4.0625 C 7.445312 -3.6875 7.609375 -3.203125 7.609375 -2.609375 C 7.609375 -1.992188 7.457031 -1.472656 7.15625 -1.046875 C 6.851562 -0.617188 6.441406 -0.296875 5.921875 -0.078125 C 5.410156 0.128906 4.828125 0.234375 4.171875 0.234375 C 3.023438 0.234375 2.128906 -0.00390625 1.484375 -0.484375 C 0.835938 -0.972656 0.5 -1.703125 0.46875 -2.671875 L 2.21875 -2.671875 C 2.226562 -2.234375 2.390625 -1.890625 2.703125 -1.640625 C 3.023438 -1.390625 3.476562 -1.265625 4.0625 -1.265625 C 4.644531 -1.265625 5.09375 -1.359375 5.40625 -1.546875 C 5.71875 -1.734375 5.875 -2.015625 5.875 -2.390625 C 5.875 -2.640625 5.789062 -2.832031 5.625 -2.96875 C 5.457031 -3.101562 5.179688 -3.226562 4.796875 -3.34375 C 4.410156 -3.457031 3.765625 -3.613281 2.859375 -3.8125 C 2.066406 -3.988281 1.492188 -4.269531 1.140625 -4.65625 C 0.785156 -5.050781 0.609375 -5.582031 0.609375 -6.25 C 0.609375 -6.757812 0.726562 -7.21875 0.96875 -7.625 C 1.21875 -8.03125 1.59375 -8.347656 2.09375 -8.578125 C 2.59375 -8.804688 3.210938 -8.921875 3.953125 -8.921875 C 4.617188 -8.921875 5.203125 -8.804688 5.703125 -8.578125 C 6.210938 -8.347656 6.609375 -8.019531 6.890625 -7.59375 C 7.171875 -7.175781 7.320312 -6.679688 7.34375 -6.109375 L 5.59375 -6.109375 C 5.507812 -6.984375 4.914062 -7.421875 3.8125 -7.421875 Z M 3.8125 -7.421875 "/></g></g></g><g fill="#ffffff" fill-opacity="1"><g transform="translate(119.052558, 71.071827)"><g><path d="M 0.828125 -7.203125 L 0.828125 -8.78125 L 2.53125 -8.78125 L 2.53125 -7.203125 Z M 0.828125 0 L 0.828125 -6.4375 L 2.53125 -6.4375 L 2.53125 0 Z M 0.828125 0 "/></g></g></g><g fill="#ffffff" fill-opacity="1"><g transform="translate(122.419187, 71.071827)"><g><path d="M 6.09375 -4.484375 L 4.4375 -4.484375 C 4.382812 -4.796875 4.265625 -5.015625 4.078125 -5.140625 C 3.898438 -5.265625 3.632812 -5.328125 3.28125 -5.328125 C 2.9375 -5.328125 2.675781 -5.273438 2.5 -5.171875 C 2.332031 -5.078125 2.25 -4.921875 2.25 -4.703125 C 2.25 -4.523438 2.378906 -4.378906 2.640625 -4.265625 C 2.898438 -4.160156 3.316406 -4.054688 3.890625 -3.953125 C 4.773438 -3.785156 5.394531 -3.546875 5.75 -3.234375 C 6.101562 -2.929688 6.28125 -2.539062 6.28125 -2.0625 C 6.28125 -1.3125 6.015625 -0.75 5.484375 -0.375 C 4.960938 -0.0078125 4.273438 0.171875 3.421875 0.171875 C 2.484375 0.171875 1.738281 -0.0234375 1.1875 -0.421875 C 0.632812 -0.828125 0.359375 -1.375 0.359375 -2.0625 L 2.109375 -2.0625 C 2.109375 -1.425781 2.570312 -1.109375 3.5 -1.109375 C 3.832031 -1.109375 4.097656 -1.171875 4.296875 -1.296875 C 4.492188 -1.421875 4.59375 -1.582031 4.59375 -1.78125 C 4.59375 -1.976562 4.460938 -2.128906 4.203125 -2.234375 C 3.953125 -2.335938 3.5 -2.445312 2.84375 -2.5625 C 2.082031 -2.695312 1.515625 -2.914062 1.140625 -3.21875 C 0.773438 -3.53125 0.59375 -3.941406 0.59375 -4.453125 C 0.59375 -5.097656 0.820312 -5.617188 1.28125 -6.015625 C 1.738281 -6.410156 2.378906 -6.609375 3.203125 -6.609375 C 4.140625 -6.609375 4.84375 -6.421875 5.3125 -6.046875 C 5.789062 -5.679688 6.050781 -5.160156 6.09375 -4.484375 Z M 6.09375 -4.484375 "/></g></g></g><g fill="#ffffff" fill-opacity="1"><g transform="translate(129.152444, 71.071827)"><g><path d="M 3.734375 -6.4375 L 3.734375 -5.234375 L 2.6875 -5.234375 L 2.6875 -1.640625 C 2.6875 -1.460938 2.734375 -1.34375 2.828125 -1.28125 C 2.921875 -1.226562 3.101562 -1.203125 3.375 -1.203125 C 3.4375 -1.203125 3.554688 -1.210938 3.734375 -1.234375 L 3.734375 0.046875 C 3.285156 0.0664062 2.984375 0.078125 2.828125 0.078125 C 2.316406 0.078125 1.925781 0.0234375 1.65625 -0.078125 C 1.394531 -0.191406 1.21875 -0.347656 1.125 -0.546875 C 1.039062 -0.742188 1 -1.003906 1 -1.328125 L 1 -5.234375 L 0.125 -5.234375 L 0.125 -6.4375 L 1 -6.4375 L 1 -8.1875 L 2.6875 -8.1875 L 2.6875 -6.4375 Z M 3.734375 -6.4375 "/></g></g></g><g fill="#ffffff" fill-opacity="1"><g transform="translate(133.185134, 71.071827)"><g><path d="M 3.484375 -1.1875 C 3.734375 -1.1875 3.960938 -1.242188 4.171875 -1.359375 C 4.378906 -1.484375 4.515625 -1.660156 4.578125 -1.890625 L 6.328125 -1.890625 C 6.140625 -1.234375 5.796875 -0.722656 5.296875 -0.359375 C 4.796875 -0.00390625 4.191406 0.171875 3.484375 0.171875 C 2.421875 0.171875 1.617188 -0.117188 1.078125 -0.703125 C 0.546875 -1.296875 0.28125 -2.175781 0.28125 -3.34375 C 0.28125 -3.976562 0.398438 -4.539062 0.640625 -5.03125 C 0.878906 -5.53125 1.226562 -5.914062 1.6875 -6.1875 C 2.144531 -6.46875 2.703125 -6.609375 3.359375 -6.609375 C 4.273438 -6.609375 5.007812 -6.3125 5.5625 -5.71875 C 6.113281 -5.132812 6.390625 -4.242188 6.390625 -3.046875 L 6.390625 -2.765625 L 1.96875 -2.765625 C 2.03125 -1.710938 2.535156 -1.1875 3.484375 -1.1875 Z M 3.328125 -5.21875 C 2.554688 -5.21875 2.117188 -4.765625 2.015625 -3.859375 L 4.65625 -3.859375 C 4.613281 -4.285156 4.472656 -4.617188 4.234375 -4.859375 C 4.003906 -5.097656 3.703125 -5.21875 3.328125 -5.21875 Z M 3.328125 -5.21875 "/></g></g></g><g fill="#ffffff" fill-opacity="1"><g transform="translate(139.918392, 71.071827)"><g><path d="M 6.046875 -5.578125 C 6.484375 -6.265625 7.054688 -6.609375 7.765625 -6.609375 C 8.210938 -6.609375 8.601562 -6.515625 8.9375 -6.328125 C 9.28125 -6.148438 9.539062 -5.898438 9.71875 -5.578125 C 9.90625 -5.253906 10 -4.894531 10 -4.5 L 10 0 L 8.3125 0 L 8.3125 -3.953125 C 8.3125 -4.378906 8.222656 -4.691406 8.046875 -4.890625 C 7.878906 -5.085938 7.65625 -5.1875 7.375 -5.1875 C 6.96875 -5.1875 6.675781 -5.066406 6.5 -4.828125 C 6.320312 -4.585938 6.234375 -4.269531 6.234375 -3.875 L 6.234375 0 L 4.546875 0 L 4.546875 -4 C 4.546875 -4.425781 4.460938 -4.726562 4.296875 -4.90625 C 4.128906 -5.09375 3.875 -5.1875 3.53125 -5.1875 C 3.175781 -5.1875 2.910156 -5.078125 2.734375 -4.859375 C 2.554688 -4.648438 2.46875 -4.351562 2.46875 -3.96875 L 2.46875 0 L 0.78125 0 L 0.78125 -6.4375 L 2.390625 -6.4375 L 2.390625 -5.5 L 2.421875 -5.5 C 2.796875 -6.238281 3.40625 -6.609375 4.25 -6.609375 C 4.664062 -6.609375 5.007812 -6.53125 5.28125 -6.375 C 5.550781 -6.226562 5.804688 -5.960938 6.046875 -5.578125 Z M 6.046875 -5.578125 "/></g></g></g><g fill="#ffffff" fill-opacity="1"><g transform="translate(150.684339, 71.071827)"><g><path d="M 6.375 -0.25 L 6.375 0 L 4.546875 0 C 4.453125 -0.28125 4.398438 -0.535156 4.390625 -0.765625 C 4.085938 -0.429688 3.769531 -0.191406 3.4375 -0.046875 C 3.101562 0.0976562 2.726562 0.171875 2.3125 0.171875 C 1.71875 0.171875 1.238281 0.00390625 0.875 -0.328125 C 0.519531 -0.671875 0.34375 -1.128906 0.34375 -1.703125 C 0.34375 -2.242188 0.488281 -2.691406 0.78125 -3.046875 C 1.082031 -3.410156 1.613281 -3.660156 2.375 -3.796875 L 3.578125 -3.96875 C 3.890625 -4.019531 4.09375 -4.082031 4.1875 -4.15625 C 4.289062 -4.226562 4.34375 -4.347656 4.34375 -4.515625 C 4.34375 -4.753906 4.253906 -4.9375 4.078125 -5.0625 C 3.910156 -5.1875 3.628906 -5.25 3.234375 -5.25 C 2.597656 -5.25 2.25 -4.953125 2.1875 -4.359375 L 0.5625 -4.359375 C 0.625 -5.097656 0.867188 -5.65625 1.296875 -6.03125 C 1.734375 -6.414062 2.429688 -6.609375 3.390625 -6.609375 C 4.210938 -6.609375 4.851562 -6.445312 5.3125 -6.125 C 5.769531 -5.800781 6 -5.359375 6 -4.796875 L 6 -1.203125 C 6 -0.898438 6.03125 -0.675781 6.09375 -0.53125 C 6.15625 -0.394531 6.25 -0.300781 6.375 -0.25 Z M 4.34375 -2.34375 L 4.34375 -3.140625 C 4.195312 -3.046875 4.039062 -2.972656 3.875 -2.921875 C 3.707031 -2.867188 3.460938 -2.816406 3.140625 -2.765625 C 2.773438 -2.722656 2.5 -2.625 2.3125 -2.46875 C 2.132812 -2.320312 2.046875 -2.101562 2.046875 -1.8125 C 2.046875 -1.582031 2.117188 -1.394531 2.265625 -1.25 C 2.410156 -1.113281 2.597656 -1.046875 2.828125 -1.046875 C 3.078125 -1.046875 3.316406 -1.097656 3.546875 -1.203125 C 3.785156 -1.316406 3.976562 -1.472656 4.125 -1.671875 C 4.269531 -1.867188 4.34375 -2.09375 4.34375 -2.34375 Z M 4.34375 -2.34375 "/></g></g></g><g fill="#ffffff" fill-opacity="1"><g transform="translate(157.417597, 71.071827)"><g/></g></g><g fill="#ffffff" fill-opacity="1"><g transform="translate(160.784226, 71.071827)"><g><path d="M 5.015625 0 L 5.015625 -0.8125 L 4.984375 -0.8125 C 4.785156 -0.46875 4.519531 -0.21875 4.1875 -0.0625 C 3.863281 0.09375 3.507812 0.171875 3.125 0.171875 C 2.5625 0.171875 2.078125 0.0234375 1.671875 -0.265625 C 1.265625 -0.554688 0.953125 -0.960938 0.734375 -1.484375 C 0.515625 -2.003906 0.40625 -2.609375 0.40625 -3.296875 C 0.40625 -3.960938 0.519531 -4.546875 0.75 -5.046875 C 0.976562 -5.546875 1.296875 -5.929688 1.703125 -6.203125 C 2.109375 -6.472656 2.570312 -6.609375 3.09375 -6.609375 C 3.5 -6.609375 3.859375 -6.519531 4.171875 -6.34375 C 4.492188 -6.175781 4.753906 -5.929688 4.953125 -5.609375 L 4.984375 -5.609375 L 4.984375 -8.6875 L 6.671875 -8.6875 L 6.671875 0 Z M 5.046875 -3.078125 C 5.046875 -3.734375 4.921875 -4.238281 4.671875 -4.59375 C 4.429688 -4.957031 4.066406 -5.140625 3.578125 -5.140625 C 3.128906 -5.140625 2.78125 -4.96875 2.53125 -4.625 C 2.28125 -4.28125 2.15625 -3.800781 2.15625 -3.1875 C 2.15625 -2.613281 2.28125 -2.140625 2.53125 -1.765625 C 2.78125 -1.398438 3.117188 -1.21875 3.546875 -1.21875 C 4.003906 -1.21875 4.367188 -1.382812 4.640625 -1.71875 C 4.910156 -2.0625 5.046875 -2.515625 5.046875 -3.078125 Z M 5.046875 -3.078125 "/></g></g></g><g fill="#ffffff" fill-opacity="1"><g transform="translate(168.183544, 71.071827)"><g><path d="M 3.484375 -1.1875 C 3.734375 -1.1875 3.960938 -1.242188 4.171875 -1.359375 C 4.378906 -1.484375 4.515625 -1.660156 4.578125 -1.890625 L 6.328125 -1.890625 C 6.140625 -1.234375 5.796875 -0.722656 5.296875 -0.359375 C 4.796875 -0.00390625 4.191406 0.171875 3.484375 0.171875 C 2.421875 0.171875 1.617188 -0.117188 1.078125 -0.703125 C 0.546875 -1.296875 0.28125 -2.175781 0.28125 -3.34375 C 0.28125 -3.976562 0.398438 -4.539062 0.640625 -5.03125 C 0.878906 -5.53125 1.226562 -5.914062 1.6875 -6.1875 C 2.144531 -6.46875 2.703125 -6.609375 3.359375 -6.609375 C 4.273438 -6.609375 5.007812 -6.3125 5.5625 -5.71875 C 6.113281 -5.132812 6.390625 -4.242188 6.390625 -3.046875 L 6.390625 -2.765625 L 1.96875 -2.765625 C 2.03125 -1.710938 2.535156 -1.1875 3.484375 -1.1875 Z M 3.328125 -5.21875 C 2.554688 -5.21875 2.117188 -4.765625 2.015625 -3.859375 L 4.65625 -3.859375 C 4.613281 -4.285156 4.472656 -4.617188 4.234375 -4.859375 C 4.003906 -5.097656 3.703125 -5.21875 3.328125 -5.21875 Z M 3.328125 -5.21875 "/></g></g></g><g fill="#ffffff" fill-opacity="1"><g transform="translate(174.916802, 71.071827)"><g/></g></g><g fill="#ffffff" fill-opacity="1"><g transform="translate(178.283431, 71.071827)"><g><path d="M 2.703125 -7.15625 L 2.703125 -5.328125 L 6.9375 -5.328125 L 6.9375 -3.796875 L 2.703125 -3.796875 L 2.703125 -1.53125 L 7.515625 -1.53125 L 7.515625 0 L 0.921875 0 L 0.921875 -8.6875 L 7.3125 -8.6875 L 7.3125 -7.15625 Z M 2.703125 -7.15625 "/></g></g></g><g fill="#ffffff" fill-opacity="1"><g transform="translate(186.360911, 71.071827)"><g><path d="M 3.40625 -1.6875 L 4.765625 -6.4375 L 6.578125 -6.4375 L 4.25 0 L 2.46875 0 L 0.15625 -6.4375 L 2.046875 -6.4375 L 3.375 -1.6875 Z M 3.40625 -1.6875 "/></g></g></g><g fill="#ffffff" fill-opacity="1"><g transform="translate(193.094168, 71.071827)"><g><path d="M 6.375 -0.25 L 6.375 0 L 4.546875 0 C 4.453125 -0.28125 4.398438 -0.535156 4.390625 -0.765625 C 4.085938 -0.429688 3.769531 -0.191406 3.4375 -0.046875 C 3.101562 0.0976562 2.726562 0.171875 2.3125 0.171875 C 1.71875 0.171875 1.238281 0.00390625 0.875 -0.328125 C 0.519531 -0.671875 0.34375 -1.128906 0.34375 -1.703125 C 0.34375 -2.242188 0.488281 -2.691406 0.78125 -3.046875 C 1.082031 -3.410156 1.613281 -3.660156 2.375 -3.796875 L 3.578125 -3.96875 C 3.890625 -4.019531 4.09375 -4.082031 4.1875 -4.15625 C 4.289062 -4.226562 4.34375 -4.347656 4.34375 -4.515625 C 4.34375 -4.753906 4.253906 -4.9375 4.078125 -5.0625 C 3.910156 -5.1875 3.628906 -5.25 3.234375 -5.25 C 2.597656 -5.25 2.25 -4.953125 2.1875 -4.359375 L 0.5625 -4.359375 C 0.625 -5.097656 0.867188 -5.65625 1.296875 -6.03125 C 1.734375 -6.414062 2.429688 -6.609375 3.390625 -6.609375 C 4.210938 -6.609375 4.851562 -6.445312 5.3125 -6.125 C 5.769531 -5.800781 6 -5.359375 6 -4.796875 L 6 -1.203125 C 6 -0.898438 6.03125 -0.675781 6.09375 -0.53125 C 6.15625 -0.394531 6.25 -0.300781 6.375 -0.25 Z M 4.34375 -2.34375 L 4.34375 -3.140625 C 4.195312 -3.046875 4.039062 -2.972656 3.875 -2.921875 C 3.707031 -2.867188 3.460938 -2.816406 3.140625 -2.765625 C 2.773438 -2.722656 2.5 -2.625 2.3125 -2.46875 C 2.132812 -2.320312 2.046875 -2.101562 2.046875 -1.8125 C 2.046875 -1.582031 2.117188 -1.394531 2.265625 -1.25 C 2.410156 -1.113281 2.597656 -1.046875 2.828125 -1.046875 C 3.078125 -1.046875 3.316406 -1.097656 3.546875 -1.203125 C 3.785156 -1.316406 3.976562 -1.472656 4.125 -1.671875 C 4.269531 -1.867188 4.34375 -2.09375 4.34375 -2.34375 Z M 4.34375 -2.34375 "/></g></g></g><g fill="#ffffff" fill-opacity="1"><g transform="translate(199.827426, 71.071827)"><g><path d="M 0.828125 0 L 0.828125 -8.6875 L 2.53125 -8.6875 L 2.53125 0 Z M 0.828125 0 "/></g></g></g><g fill="#ffffff" fill-opacity="1"><g transform="translate(203.194054, 71.071827)"><g><path d="M 3.59375 -1.265625 C 3.976562 -1.265625 4.289062 -1.394531 4.53125 -1.65625 C 4.78125 -1.914062 4.90625 -2.257812 4.90625 -2.6875 L 4.90625 -6.4375 L 6.59375 -6.4375 L 6.59375 0 L 4.984375 0 L 4.984375 -0.90625 L 4.953125 -0.90625 C 4.535156 -0.1875 3.878906 0.171875 2.984375 0.171875 C 2.296875 0.171875 1.757812 -0.03125 1.375 -0.4375 C 0.988281 -0.851562 0.796875 -1.425781 0.796875 -2.15625 L 0.796875 -6.4375 L 2.5 -6.4375 L 2.5 -2.40625 C 2.5 -2.039062 2.585938 -1.757812 2.765625 -1.5625 C 2.953125 -1.363281 3.226562 -1.265625 3.59375 -1.265625 Z M 3.59375 -1.265625 "/></g></g></g><g fill="#ffffff" fill-opacity="1"><g transform="translate(210.593373, 71.071827)"><g><path d="M 6.375 -0.25 L 6.375 0 L 4.546875 0 C 4.453125 -0.28125 4.398438 -0.535156 4.390625 -0.765625 C 4.085938 -0.429688 3.769531 -0.191406 3.4375 -0.046875 C 3.101562 0.0976562 2.726562 0.171875 2.3125 0.171875 C 1.71875 0.171875 1.238281 0.00390625 0.875 -0.328125 C 0.519531 -0.671875 0.34375 -1.128906 0.34375 -1.703125 C 0.34375 -2.242188 0.488281 -2.691406 0.78125 -3.046875 C 1.082031 -3.410156 1.613281 -3.660156 2.375 -3.796875 L 3.578125 -3.96875 C 3.890625 -4.019531 4.09375 -4.082031 4.1875 -4.15625 C 4.289062 -4.226562 4.34375 -4.347656 4.34375 -4.515625 C 4.34375 -4.753906 4.253906 -4.9375 4.078125 -5.0625 C 3.910156 -5.1875 3.628906 -5.25 3.234375 -5.25 C 2.597656 -5.25 2.25 -4.953125 2.1875 -4.359375 L 0.5625 -4.359375 C 0.625 -5.097656 0.867188 -5.65625 1.296875 -6.03125 C 1.734375 -6.414062 2.429688 -6.609375 3.390625 -6.609375 C 4.210938 -6.609375 4.851562 -6.445312 5.3125 -6.125 C 5.769531 -5.800781 6 -5.359375 6 -4.796875 L 6 -1.203125 C 6 -0.898438 6.03125 -0.675781 6.09375 -0.53125 C 6.15625 -0.394531 6.25 -0.300781 6.375 -0.25 Z M 4.34375 -2.34375 L 4.34375 -3.140625 C 4.195312 -3.046875 4.039062 -2.972656 3.875 -2.921875 C 3.707031 -2.867188 3.460938 -2.816406 3.140625 -2.765625 C 2.773438 -2.722656 2.5 -2.625 2.3125 -2.46875 C 2.132812 -2.320312 2.046875 -2.101562 2.046875 -1.8125 C 2.046875 -1.582031 2.117188 -1.394531 2.265625 -1.25 C 2.410156 -1.113281 2.597656 -1.046875 2.828125 -1.046875 C 3.078125 -1.046875 3.316406 -1.097656 3.546875 -1.203125 C 3.785156 -1.316406 3.976562 -1.472656 4.125 -1.671875 C 4.269531 -1.867188 4.34375 -2.09375 4.34375 -2.34375 Z M 4.34375 -2.34375 "/></g></g></g><g fill="#ffffff" fill-opacity="1"><g transform="translate(217.326631, 71.071827)"><g><path d="M 3.53125 -5.1875 C 3.082031 -5.1875 2.738281 -5.015625 2.5 -4.671875 C 2.269531 -4.335938 2.15625 -3.851562 2.15625 -3.21875 C 2.15625 -2.488281 2.269531 -1.972656 2.5 -1.671875 C 2.738281 -1.367188 3.0625 -1.21875 3.46875 -1.21875 C 3.78125 -1.21875 4.039062 -1.320312 4.25 -1.53125 C 4.457031 -1.75 4.578125 -2.019531 4.609375 -2.34375 L 6.328125 -2.34375 C 6.222656 -1.601562 5.921875 -1 5.421875 -0.53125 C 4.921875 -0.0625 4.242188 0.171875 3.390625 0.171875 C 2.421875 0.171875 1.679688 -0.113281 1.171875 -0.6875 C 0.660156 -1.269531 0.40625 -2.054688 0.40625 -3.046875 C 0.40625 -4.191406 0.671875 -5.070312 1.203125 -5.6875 C 1.742188 -6.300781 2.507812 -6.609375 3.5 -6.609375 C 4.019531 -6.609375 4.488281 -6.507812 4.90625 -6.3125 C 5.320312 -6.125 5.65625 -5.84375 5.90625 -5.46875 C 6.164062 -5.09375 6.3125 -4.648438 6.34375 -4.140625 L 4.625 -4.140625 C 4.570312 -4.453125 4.457031 -4.703125 4.28125 -4.890625 C 4.101562 -5.085938 3.851562 -5.1875 3.53125 -5.1875 Z M 3.53125 -5.1875 "/></g></g></g><g fill="#ffffff" fill-opacity="1"><g transform="translate(224.059888, 71.071827)"><g><path d="M 0.828125 -7.203125 L 0.828125 -8.78125 L 2.53125 -8.78125 L 2.53125 -7.203125 Z M 0.828125 0 L 0.828125 -6.4375 L 2.53125 -6.4375 L 2.53125 0 Z M 0.828125 0 "/></g></g></g><g fill="#ffffff" fill-opacity="1"><g transform="translate(227.426517, 71.071827)"><g><path d="M 7 -3.21875 C 7 -2.519531 6.859375 -1.914062 6.578125 -1.40625 C 6.304688 -0.90625 5.921875 -0.515625 5.421875 -0.234375 C 4.921875 0.0351562 4.347656 0.171875 3.703125 0.171875 C 3.054688 0.171875 2.484375 0.0351562 1.984375 -0.234375 C 1.484375 -0.515625 1.09375 -0.90625 0.8125 -1.40625 C 0.539062 -1.914062 0.40625 -2.519531 0.40625 -3.21875 C 0.40625 -3.914062 0.546875 -4.519531 0.828125 -5.03125 C 1.109375 -5.539062 1.5 -5.929688 2 -6.203125 C 2.5 -6.472656 3.066406 -6.609375 3.703125 -6.609375 C 4.347656 -6.609375 4.921875 -6.46875 5.421875 -6.1875 C 5.921875 -5.914062 6.304688 -5.523438 6.578125 -5.015625 C 6.859375 -4.515625 7 -3.914062 7 -3.21875 Z M 3.703125 -1.265625 C 4.222656 -1.265625 4.609375 -1.429688 4.859375 -1.765625 C 5.117188 -2.109375 5.25 -2.59375 5.25 -3.21875 C 5.25 -3.84375 5.117188 -4.328125 4.859375 -4.671875 C 4.597656 -5.015625 4.207031 -5.1875 3.6875 -5.1875 C 3.195312 -5.1875 2.816406 -5.015625 2.546875 -4.671875 C 2.285156 -4.335938 2.15625 -3.851562 2.15625 -3.21875 C 2.15625 -2.582031 2.285156 -2.097656 2.546875 -1.765625 C 2.804688 -1.429688 3.191406 -1.265625 3.703125 -1.265625 Z M 3 -7.3125 L 4.140625 -9.078125 L 6 -9.078125 L 4.21875 -7.3125 Z M 3 -7.3125 "/></g></g></g><g fill="#ffffff" fill-opacity="1"><g transform="translate(234.825836, 71.071827)"><g><path d="M 6.609375 -4.5 L 6.609375 0 L 4.921875 0 L 4.921875 -4.078125 C 4.921875 -4.429688 4.820312 -4.703125 4.625 -4.890625 C 4.4375 -5.085938 4.164062 -5.1875 3.8125 -5.1875 C 3.414062 -5.1875 3.09375 -5.054688 2.84375 -4.796875 C 2.601562 -4.535156 2.484375 -4.179688 2.484375 -3.734375 L 2.484375 0 L 0.78125 0 L 0.78125 -6.4375 L 2.40625 -6.4375 L 2.40625 -5.5 L 2.4375 -5.5 C 2.632812 -5.875 2.898438 -6.148438 3.234375 -6.328125 C 3.566406 -6.515625 3.945312 -6.609375 4.375 -6.609375 C 4.8125 -6.609375 5.195312 -6.515625 5.53125 -6.328125 C 5.875 -6.148438 6.140625 -5.898438 6.328125 -5.578125 C 6.515625 -5.265625 6.609375 -4.90625 6.609375 -4.5 Z M 6.609375 -4.5 "/></g></g></g><g fill="#ffffff" fill-opacity="1"><g transform="translate(110.975078, 87.498817)"><g><path d="M 5.015625 0 L 5.015625 -0.8125 L 4.984375 -0.8125 C 4.785156 -0.46875 4.519531 -0.21875 4.1875 -0.0625 C 3.863281 0.09375 3.507812 0.171875 3.125 0.171875 C 2.5625 0.171875 2.078125 0.0234375 1.671875 -0.265625 C 1.265625 -0.554688 0.953125 -0.960938 0.734375 -1.484375 C 0.515625 -2.003906 0.40625 -2.609375 0.40625 -3.296875 C 0.40625 -3.960938 0.519531 -4.546875 0.75 -5.046875 C 0.976562 -5.546875 1.296875 -5.929688 1.703125 -6.203125 C 2.109375 -6.472656 2.570312 -6.609375 3.09375 -6.609375 C 3.5 -6.609375 3.859375 -6.519531 4.171875 -6.34375 C 4.492188 -6.175781 4.753906 -5.929688 4.953125 -5.609375 L 4.984375 -5.609375 L 4.984375 -8.6875 L 6.671875 -8.6875 L 6.671875 0 Z M 5.046875 -3.078125 C 5.046875 -3.734375 4.921875 -4.238281 4.671875 -4.59375 C 4.429688 -4.957031 4.066406 -5.140625 3.578125 -5.140625 C 3.128906 -5.140625 2.78125 -4.96875 2.53125 -4.625 C 2.28125 -4.28125 2.15625 -3.800781 2.15625 -3.1875 C 2.15625 -2.613281 2.28125 -2.140625 2.53125 -1.765625 C 2.78125 -1.398438 3.117188 -1.21875 3.546875 -1.21875 C 4.003906 -1.21875 4.367188 -1.382812 4.640625 -1.71875 C 4.910156 -2.0625 5.046875 -2.515625 5.046875 -3.078125 Z M 5.046875 -3.078125 "/></g></g></g><g fill="#ffffff" fill-opacity="1"><g transform="translate(118.374397, 87.498817)"><g><path d="M 3.484375 -1.1875 C 3.734375 -1.1875 3.960938 -1.242188 4.171875 -1.359375 C 4.378906 -1.484375 4.515625 -1.660156 4.578125 -1.890625 L 6.328125 -1.890625 C 6.140625 -1.234375 5.796875 -0.722656 5.296875 -0.359375 C 4.796875 -0.00390625 4.191406 0.171875 3.484375 0.171875 C 2.421875 0.171875 1.617188 -0.117188 1.078125 -0.703125 C 0.546875 -1.296875 0.28125 -2.175781 0.28125 -3.34375 C 0.28125 -3.976562 0.398438 -4.539062 0.640625 -5.03125 C 0.878906 -5.53125 1.226562 -5.914062 1.6875 -6.1875 C 2.144531 -6.46875 2.703125 -6.609375 3.359375 -6.609375 C 4.273438 -6.609375 5.007812 -6.3125 5.5625 -5.71875 C 6.113281 -5.132812 6.390625 -4.242188 6.390625 -3.046875 L 6.390625 -2.765625 L 1.96875 -2.765625 C 2.03125 -1.710938 2.535156 -1.1875 3.484375 -1.1875 Z M 3.328125 -5.21875 C 2.554688 -5.21875 2.117188 -4.765625 2.015625 -3.859375 L 4.65625 -3.859375 C 4.613281 -4.285156 4.472656 -4.617188 4.234375 -4.859375 C 4.003906 -5.097656 3.703125 -5.21875 3.328125 -5.21875 Z M 3.328125 -5.21875 "/></g></g></g><g fill="#ffffff" fill-opacity="1"><g transform="translate(125.107654, 87.498817)"><g/></g></g><g fill="#ffffff" fill-opacity="1"><g transform="translate(128.474283, 87.498817)"><g><path d="M 2.703125 -7.15625 L 2.703125 -5.328125 L 6.9375 -5.328125 L 6.9375 -3.796875 L 2.703125 -3.796875 L 2.703125 -1.53125 L 7.515625 -1.53125 L 7.515625 0 L 0.921875 0 L 0.921875 -8.6875 L 7.3125 -8.6875 L 7.3125 -7.15625 Z M 2.703125 -7.15625 "/></g></g></g><g fill="#ffffff" fill-opacity="1"><g transform="translate(136.551763, 87.498817)"><g><path d="M 3.734375 -6.4375 L 3.734375 -5.234375 L 2.6875 -5.234375 L 2.6875 -1.640625 C 2.6875 -1.460938 2.734375 -1.34375 2.828125 -1.28125 C 2.921875 -1.226562 3.101562 -1.203125 3.375 -1.203125 C 3.4375 -1.203125 3.554688 -1.210938 3.734375 -1.234375 L 3.734375 0.046875 C 3.285156 0.0664062 2.984375 0.078125 2.828125 0.078125 C 2.316406 0.078125 1.925781 0.0234375 1.65625 -0.078125 C 1.394531 -0.191406 1.21875 -0.347656 1.125 -0.546875 C 1.039062 -0.742188 1 -1.003906 1 -1.328125 L 1 -5.234375 L 0.125 -5.234375 L 0.125 -6.4375 L 1 -6.4375 L 1 -8.1875 L 2.6875 -8.1875 L 2.6875 -6.4375 Z M 3.734375 -6.4375 "/></g></g></g><g fill="#ffffff" fill-opacity="1"><g transform="translate(140.584453, 87.498817)"><g><path d="M 6.375 -0.25 L 6.375 0 L 4.546875 0 C 4.453125 -0.28125 4.398438 -0.535156 4.390625 -0.765625 C 4.085938 -0.429688 3.769531 -0.191406 3.4375 -0.046875 C 3.101562 0.0976562 2.726562 0.171875 2.3125 0.171875 C 1.71875 0.171875 1.238281 0.00390625 0.875 -0.328125 C 0.519531 -0.671875 0.34375 -1.128906 0.34375 -1.703125 C 0.34375 -2.242188 0.488281 -2.691406 0.78125 -3.046875 C 1.082031 -3.410156 1.613281 -3.660156 2.375 -3.796875 L 3.578125 -3.96875 C 3.890625 -4.019531 4.09375 -4.082031 4.1875 -4.15625 C 4.289062 -4.226562 4.34375 -4.347656 4.34375 -4.515625 C 4.34375 -4.753906 4.253906 -4.9375 4.078125 -5.0625 C 3.910156 -5.1875 3.628906 -5.25 3.234375 -5.25 C 2.597656 -5.25 2.25 -4.953125 2.1875 -4.359375 L 0.5625 -4.359375 C 0.625 -5.097656 0.867188 -5.65625 1.296875 -6.03125 C 1.734375 -6.414062 2.429688 -6.609375 3.390625 -6.609375 C 4.210938 -6.609375 4.851562 -6.445312 5.3125 -6.125 C 5.769531 -5.800781 6 -5.359375 6 -4.796875 L 6 -1.203125 C 6 -0.898438 6.03125 -0.675781 6.09375 -0.53125 C 6.15625 -0.394531 6.25 -0.300781 6.375 -0.25 Z M 4.34375 -2.34375 L 4.34375 -3.140625 C 4.195312 -3.046875 4.039062 -2.972656 3.875 -2.921875 C 3.707031 -2.867188 3.460938 -2.816406 3.140625 -2.765625 C 2.773438 -2.722656 2.5 -2.625 2.3125 -2.46875 C 2.132812 -2.320312 2.046875 -2.101562 2.046875 -1.8125 C 2.046875 -1.582031 2.117188 -1.394531 2.265625 -1.25 C 2.410156 -1.113281 2.597656 -1.046875 2.828125 -1.046875 C 3.078125 -1.046875 3.316406 -1.097656 3.546875 -1.203125 C 3.785156 -1.316406 3.976562 -1.472656 4.125 -1.671875 C 4.269531 -1.867188 4.34375 -2.09375 4.34375 -2.34375 Z M 4.34375 -2.34375 "/></g></g></g><g fill="#ffffff" fill-opacity="1"><g transform="translate(147.317711, 87.498817)"><g><path d="M 7 -3.296875 C 7 -2.617188 6.890625 -2.019531 6.671875 -1.5 C 6.460938 -0.976562 6.15625 -0.566406 5.75 -0.265625 C 5.34375 0.0234375 4.851562 0.171875 4.28125 0.171875 C 3.4375 0.171875 2.832031 -0.160156 2.46875 -0.828125 L 2.453125 -0.828125 L 2.453125 2.5 L 0.75 2.5 L 0.75 -6.4375 L 2.375 -6.4375 L 2.375 -5.515625 L 2.390625 -5.515625 C 2.828125 -6.242188 3.472656 -6.609375 4.328125 -6.609375 C 4.835938 -6.609375 5.296875 -6.472656 5.703125 -6.203125 C 6.117188 -5.929688 6.4375 -5.546875 6.65625 -5.046875 C 6.882812 -4.546875 7 -3.960938 7 -3.296875 Z M 3.859375 -1.21875 C 4.304688 -1.21875 4.648438 -1.40625 4.890625 -1.78125 C 5.128906 -2.15625 5.25 -2.625 5.25 -3.1875 C 5.25 -3.800781 5.125 -4.28125 4.875 -4.625 C 4.632812 -4.96875 4.273438 -5.140625 3.796875 -5.140625 C 3.335938 -5.140625 2.984375 -4.960938 2.734375 -4.609375 C 2.492188 -4.265625 2.375 -3.753906 2.375 -3.078125 C 2.375 -2.492188 2.503906 -2.035156 2.765625 -1.703125 C 3.035156 -1.378906 3.398438 -1.21875 3.859375 -1.21875 Z M 3.859375 -1.21875 "/></g></g></g><g fill="#ffffff" fill-opacity="1"><g transform="translate(154.717029, 87.498817)"><g><path d="M 6.375 -0.25 L 6.375 0 L 4.546875 0 C 4.453125 -0.28125 4.398438 -0.535156 4.390625 -0.765625 C 4.085938 -0.429688 3.769531 -0.191406 3.4375 -0.046875 C 3.101562 0.0976562 2.726562 0.171875 2.3125 0.171875 C 1.71875 0.171875 1.238281 0.00390625 0.875 -0.328125 C 0.519531 -0.671875 0.34375 -1.128906 0.34375 -1.703125 C 0.34375 -2.242188 0.488281 -2.691406 0.78125 -3.046875 C 1.082031 -3.410156 1.613281 -3.660156 2.375 -3.796875 L 3.578125 -3.96875 C 3.890625 -4.019531 4.09375 -4.082031 4.1875 -4.15625 C 4.289062 -4.226562 4.34375 -4.347656 4.34375 -4.515625 C 4.34375 -4.753906 4.253906 -4.9375 4.078125 -5.0625 C 3.910156 -5.1875 3.628906 -5.25 3.234375 -5.25 C 2.597656 -5.25 2.25 -4.953125 2.1875 -4.359375 L 0.5625 -4.359375 C 0.625 -5.097656 0.867188 -5.65625 1.296875 -6.03125 C 1.734375 -6.414062 2.429688 -6.609375 3.390625 -6.609375 C 4.210938 -6.609375 4.851562 -6.445312 5.3125 -6.125 C 5.769531 -5.800781 6 -5.359375 6 -4.796875 L 6 -1.203125 C 6 -0.898438 6.03125 -0.675781 6.09375 -0.53125 C 6.15625 -0.394531 6.25 -0.300781 6.375 -0.25 Z M 4.34375 -2.34375 L 4.34375 -3.140625 C 4.195312 -3.046875 4.039062 -2.972656 3.875 -2.921875 C 3.707031 -2.867188 3.460938 -2.816406 3.140625 -2.765625 C 2.773438 -2.722656 2.5 -2.625 2.3125 -2.46875 C 2.132812 -2.320312 2.046875 -2.101562 2.046875 -1.8125 C 2.046875 -1.582031 2.117188 -1.394531 2.265625 -1.25 C 2.410156 -1.113281 2.597656 -1.046875 2.828125 -1.046875 C 3.078125 -1.046875 3.316406 -1.097656 3.546875 -1.203125 C 3.785156 -1.316406 3.976562 -1.472656 4.125 -1.671875 C 4.269531 -1.867188 4.34375 -2.09375 4.34375 -2.34375 Z M 4.34375 -2.34375 "/></g></g></g><g fill="#ffffff" fill-opacity="1"><g transform="translate(161.450287, 87.498817)"><g/></g></g><g fill="#ffffff" fill-opacity="1"><g transform="translate(164.816916, 87.498817)"><g><path d="M 7.59375 -5.921875 C 7.59375 -5.410156 7.484375 -4.941406 7.265625 -4.515625 C 7.046875 -4.097656 6.734375 -3.765625 6.328125 -3.515625 C 5.921875 -3.265625 5.441406 -3.140625 4.890625 -3.140625 L 2.734375 -3.140625 L 2.734375 0 L 0.921875 0 L 0.921875 -8.6875 L 4.890625 -8.6875 C 5.734375 -8.6875 6.394531 -8.4375 6.875 -7.9375 C 7.351562 -7.4375 7.59375 -6.765625 7.59375 -5.921875 Z M 5.78125 -6 C 5.78125 -6.425781 5.65625 -6.726562 5.40625 -6.90625 C 5.15625 -7.09375 4.765625 -7.1875 4.234375 -7.1875 L 2.734375 -7.1875 L 2.734375 -4.640625 L 4.46875 -4.640625 C 5.34375 -4.640625 5.78125 -5.09375 5.78125 -6 Z M 5.78125 -6 "/></g></g></g><g fill="#ffffff" fill-opacity="1"><g transform="translate(172.894396, 87.498817)"><g><path d="M 4.515625 -6.59375 L 4.515625 -4.875 C 4.390625 -4.882812 4.238281 -4.890625 4.0625 -4.890625 C 3 -4.890625 2.46875 -4.390625 2.46875 -3.390625 L 2.46875 0 L 0.78125 0 L 0.78125 -6.4375 L 2.390625 -6.4375 L 2.390625 -5.328125 L 2.421875 -5.328125 C 2.660156 -5.804688 2.914062 -6.140625 3.1875 -6.328125 C 3.46875 -6.515625 3.800781 -6.609375 4.1875 -6.609375 C 4.226562 -6.609375 4.335938 -6.601562 4.515625 -6.59375 Z M 4.515625 -6.59375 "/></g></g></g><g fill="#ffffff" fill-opacity="1"><g transform="translate(177.605258, 87.498817)"><g><path d="M 7 -3.21875 C 7 -2.519531 6.859375 -1.914062 6.578125 -1.40625 C 6.304688 -0.90625 5.921875 -0.515625 5.421875 -0.234375 C 4.921875 0.0351562 4.347656 0.171875 3.703125 0.171875 C 3.054688 0.171875 2.484375 0.0351562 1.984375 -0.234375 C 1.484375 -0.515625 1.09375 -0.90625 0.8125 -1.40625 C 0.539062 -1.914062 0.40625 -2.519531 0.40625 -3.21875 C 0.40625 -3.914062 0.546875 -4.519531 0.828125 -5.03125 C 1.109375 -5.539062 1.5 -5.929688 2 -6.203125 C 2.5 -6.472656 3.066406 -6.609375 3.703125 -6.609375 C 4.347656 -6.609375 4.921875 -6.46875 5.421875 -6.1875 C 5.921875 -5.914062 6.304688 -5.523438 6.578125 -5.015625 C 6.859375 -4.515625 7 -3.914062 7 -3.21875 Z M 3.703125 -1.265625 C 4.222656 -1.265625 4.609375 -1.429688 4.859375 -1.765625 C 5.117188 -2.109375 5.25 -2.59375 5.25 -3.21875 C 5.25 -3.84375 5.117188 -4.328125 4.859375 -4.671875 C 4.597656 -5.015625 4.207031 -5.1875 3.6875 -5.1875 C 3.195312 -5.1875 2.816406 -5.015625 2.546875 -4.671875 C 2.285156 -4.335938 2.15625 -3.851562 2.15625 -3.21875 C 2.15625 -2.582031 2.285156 -2.097656 2.546875 -1.765625 C 2.804688 -1.429688 3.191406 -1.265625 3.703125 -1.265625 Z M 3.703125 -1.265625 "/></g></g></g><g fill="#ffffff" fill-opacity="1"><g transform="translate(185.004577, 87.498817)"><g><path d="M 5.015625 0 L 5.015625 -0.8125 L 4.984375 -0.8125 C 4.785156 -0.46875 4.519531 -0.21875 4.1875 -0.0625 C 3.863281 0.09375 3.507812 0.171875 3.125 0.171875 C 2.5625 0.171875 2.078125 0.0234375 1.671875 -0.265625 C 1.265625 -0.554688 0.953125 -0.960938 0.734375 -1.484375 C 0.515625 -2.003906 0.40625 -2.609375 0.40625 -3.296875 C 0.40625 -3.960938 0.519531 -4.546875 0.75 -5.046875 C 0.976562 -5.546875 1.296875 -5.929688 1.703125 -6.203125 C 2.109375 -6.472656 2.570312 -6.609375 3.09375 -6.609375 C 3.5 -6.609375 3.859375 -6.519531 4.171875 -6.34375 C 4.492188 -6.175781 4.753906 -5.929688 4.953125 -5.609375 L 4.984375 -5.609375 L 4.984375 -8.6875 L 6.671875 -8.6875 L 6.671875 0 Z M 5.046875 -3.078125 C 5.046875 -3.734375 4.921875 -4.238281 4.671875 -4.59375 C 4.429688 -4.957031 4.066406 -5.140625 3.578125 -5.140625 C 3.128906 -5.140625 2.78125 -4.96875 2.53125 -4.625 C 2.28125 -4.28125 2.15625 -3.800781 2.15625 -3.1875 C 2.15625 -2.613281 2.28125 -2.140625 2.53125 -1.765625 C 2.78125 -1.398438 3.117188 -1.21875 3.546875 -1.21875 C 4.003906 -1.21875 4.367188 -1.382812 4.640625 -1.71875 C 4.910156 -2.0625 5.046875 -2.515625 5.046875 -3.078125 Z M 5.046875 -3.078125 "/></g></g></g><g fill="#ffffff" fill-opacity="1"><g transform="translate(192.403896, 87.498817)"><g><path d="M 3.59375 -1.265625 C 3.976562 -1.265625 4.289062 -1.394531 4.53125 -1.65625 C 4.78125 -1.914062 4.90625 -2.257812 4.90625 -2.6875 L 4.90625 -6.4375 L 6.59375 -6.4375 L 6.59375 0 L 4.984375 0 L 4.984375 -0.90625 L 4.953125 -0.90625 C 4.535156 -0.1875 3.878906 0.171875 2.984375 0.171875 C 2.296875 0.171875 1.757812 -0.03125 1.375 -0.4375 C 0.988281 -0.851562 0.796875 -1.425781 0.796875 -2.15625 L 0.796875 -6.4375 L 2.5 -6.4375 L 2.5 -2.40625 C 2.5 -2.039062 2.585938 -1.757812 2.765625 -1.5625 C 2.953125 -1.363281 3.226562 -1.265625 3.59375 -1.265625 Z M 3.59375 -1.265625 "/></g></g></g><g fill="#ffffff" fill-opacity="1"><g transform="translate(199.803215, 87.498817)"><g><path d="M 3.53125 -5.1875 C 3.082031 -5.1875 2.738281 -5.015625 2.5 -4.671875 C 2.269531 -4.335938 2.15625 -3.851562 2.15625 -3.21875 C 2.15625 -2.488281 2.269531 -1.972656 2.5 -1.671875 C 2.738281 -1.367188 3.0625 -1.21875 3.46875 -1.21875 C 3.78125 -1.21875 4.039062 -1.320312 4.25 -1.53125 C 4.457031 -1.75 4.578125 -2.019531 4.609375 -2.34375 L 6.328125 -2.34375 C 6.222656 -1.601562 5.921875 -1 5.421875 -0.53125 C 4.921875 -0.0625 4.242188 0.171875 3.390625 0.171875 C 2.421875 0.171875 1.679688 -0.113281 1.171875 -0.6875 C 0.660156 -1.269531 0.40625 -2.054688 0.40625 -3.046875 C 0.40625 -4.191406 0.671875 -5.070312 1.203125 -5.6875 C 1.742188 -6.300781 2.507812 -6.609375 3.5 -6.609375 C 4.019531 -6.609375 4.488281 -6.507812 4.90625 -6.3125 C 5.320312 -6.125 5.65625 -5.84375 5.90625 -5.46875 C 6.164062 -5.09375 6.3125 -4.648438 6.34375 -4.140625 L 4.625 -4.140625 C 4.570312 -4.453125 4.457031 -4.703125 4.28125 -4.890625 C 4.101562 -5.085938 3.851562 -5.1875 3.53125 -5.1875 Z M 3.53125 -5.1875 "/></g></g></g><g fill="#ffffff" fill-opacity="1"><g transform="translate(206.536472, 87.498817)"><g><path d="M 3.734375 -6.4375 L 3.734375 -5.234375 L 2.6875 -5.234375 L 2.6875 -1.640625 C 2.6875 -1.460938 2.734375 -1.34375 2.828125 -1.28125 C 2.921875 -1.226562 3.101562 -1.203125 3.375 -1.203125 C 3.4375 -1.203125 3.554688 -1.210938 3.734375 -1.234375 L 3.734375 0.046875 C 3.285156 0.0664062 2.984375 0.078125 2.828125 0.078125 C 2.316406 0.078125 1.925781 0.0234375 1.65625 -0.078125 C 1.394531 -0.191406 1.21875 -0.347656 1.125 -0.546875 C 1.039062 -0.742188 1 -1.003906 1 -1.328125 L 1 -5.234375 L 0.125 -5.234375 L 0.125 -6.4375 L 1 -6.4375 L 1 -8.1875 L 2.6875 -8.1875 L 2.6875 -6.4375 Z M 3.734375 -6.4375 "/></g></g></g><g fill="#ffffff" fill-opacity="1"><g transform="translate(210.569162, 87.498817)"><g><path d="M 0.828125 -7.203125 L 0.828125 -8.78125 L 2.53125 -8.78125 L 2.53125 -7.203125 Z M 0.828125 0 L 0.828125 -6.4375 L 2.53125 -6.4375 L 2.53125 0 Z M 0.828125 0 "/></g></g></g><g fill="#ffffff" fill-opacity="1"><g transform="translate(213.935791, 87.498817)"><g><path d="M 3.40625 -1.6875 L 4.765625 -6.4375 L 6.578125 -6.4375 L 4.25 0 L 2.46875 0 L 0.15625 -6.4375 L 2.046875 -6.4375 L 3.375 -1.6875 Z M 3.40625 -1.6875 "/></g></g></g><g fill="#ffffff" fill-opacity="1"><g transform="translate(220.669048, 87.498817)"><g><path d="M 6.375 -0.25 L 6.375 0 L 4.546875 0 C 4.453125 -0.28125 4.398438 -0.535156 4.390625 -0.765625 C 4.085938 -0.429688 3.769531 -0.191406 3.4375 -0.046875 C 3.101562 0.0976562 2.726562 0.171875 2.3125 0.171875 C 1.71875 0.171875 1.238281 0.00390625 0.875 -0.328125 C 0.519531 -0.671875 0.34375 -1.128906 0.34375 -1.703125 C 0.34375 -2.242188 0.488281 -2.691406 0.78125 -3.046875 C 1.082031 -3.410156 1.613281 -3.660156 2.375 -3.796875 L 3.578125 -3.96875 C 3.890625 -4.019531 4.09375 -4.082031 4.1875 -4.15625 C 4.289062 -4.226562 4.34375 -4.347656 4.34375 -4.515625 C 4.34375 -4.753906 4.253906 -4.9375 4.078125 -5.0625 C 3.910156 -5.1875 3.628906 -5.25 3.234375 -5.25 C 2.597656 -5.25 2.25 -4.953125 2.1875 -4.359375 L 0.5625 -4.359375 C 0.625 -5.097656 0.867188 -5.65625 1.296875 -6.03125 C 1.734375 -6.414062 2.429688 -6.609375 3.390625 -6.609375 C 4.210938 -6.609375 4.851562 -6.445312 5.3125 -6.125 C 5.769531 -5.800781 6 -5.359375 6 -4.796875 L 6 -1.203125 C 6 -0.898438 6.03125 -0.675781 6.09375 -0.53125 C 6.15625 -0.394531 6.25 -0.300781 6.375 -0.25 Z M 4.34375 -2.34375 L 4.34375 -3.140625 C 4.195312 -3.046875 4.039062 -2.972656 3.875 -2.921875 C 3.707031 -2.867188 3.460938 -2.816406 3.140625 -2.765625 C 2.773438 -2.722656 2.5 -2.625 2.3125 -2.46875 C 2.132812 -2.320312 2.046875 -2.101562 2.046875 -1.8125 C 2.046875 -1.582031 2.117188 -1.394531 2.265625 -1.25 C 2.410156 -1.113281 2.597656 -1.046875 2.828125 -1.046875 C 3.078125 -1.046875 3.316406 -1.097656 3.546875 -1.203125 C 3.785156 -1.316406 3.976562 -1.472656 4.125 -1.671875 C 4.269531 -1.867188 4.34375 -2.09375 4.34375 -2.34375 Z M 4.34375 -2.34375 "/></g></g></g></svg>